<svg xmlns="http://www.w3.org/2000/svg" viewBox="0 0 469.92 541.02"><defs><linearGradient id="a" x2="364.84" y1="203.27" y2="203.27" gradientUnits="userSpaceOnUse"><stop offset="0" stop-color="#3fa0ec"/><stop offset="1" stop-color="#2e3189"/></linearGradient><linearGradient id="b" x1="78.83" x2="78.83" y1="471.91" y2="322.77" gradientUnits="userSpaceOnUse"><stop offset="0" stop-color="#0071b3"/><stop offset="1" stop-color="#2e3189"/></linearGradient><linearGradient id="c" x1="500.91" x2="325.18" y1="191.68" y2="191.68" gradientUnits="userSpaceOnUse"><stop offset="0" stop-color="#3fa0ec"/><stop offset="1" stop-color="#2e3189"/></linearGradient></defs><g data-name="Calque 2"><g data-name="Calque 1"><path d="M364.84 326.64a203.67 203.67 0 0 1-207.17 74.77C67.37 380.71 0 299.87 0 203.27 0 91 91 0 203.27 0a202.67 202.67 0 0 1 143 58.76 134.48 134.48 0 0 0 1.56 269 139 139 0 0 0 17.01-1.12Z" style="fill:url(#a)"/><path d="M157.67 401.41v60.78a78.84 78.84 0 0 1-157.67 0V203.27c0 96.6 67.37 177.44 157.67 198.14Z" style="fill:url(#b)"/><circle cx="352.44" cy="191.68" r="117.48" style="fill:url(#c)"/></g></g></svg>